<?xml version="1.0"?>
<svg width="1000" height="400" viewBox="-8 -8 1016 416" xmlns="http://www.w3.org/2000/svg" xmlns:xlink="http://www.w3.org/1999/xlink">
  <g id="grid">
    <line x1="0" y1="0" x2="1000" y2="0" stroke="black" stroke-width="1" stroke-dasharray="4 2"/>
    <line x1="0" y1="100" x2="1000" y2="100" stroke="black" stroke-width="1" stroke-dasharray="4 2"/>
    <line x1="0" y1="200" x2="1000" y2="200" stroke="black" stroke-width="1" stroke-dasharray="4 2"/>
    <line x1="0" y1="300" x2="1000" y2="300" stroke="black" stroke-width="1" stroke-dasharray="4 2"/>
    <line x1="0" y1="400" x2="1000" y2="400" stroke="black" stroke-width="1" stroke-dasharray="4 2"/>
    <line x1="0" y1="0" x2="0" y2="400" stroke="black" stroke-width="1" stroke-dasharray="4 2"/>
    <line x1="100" y1="0" x2="100" y2="400" stroke="black" stroke-width="1" stroke-dasharray="4 2"/>
    <line x1="200" y1="0" x2="200" y2="400" stroke="black" stroke-width="1" stroke-dasharray="4 2"/>
    <line x1="300" y1="0" x2="300" y2="400" stroke="black" stroke-width="1" stroke-dasharray="4 2"/>
    <line x1="400" y1="0" x2="400" y2="400" stroke="black" stroke-width="1" stroke-dasharray="4 2"/>
    <line x1="500" y1="0" x2="500" y2="400" stroke="black" stroke-width="1" stroke-dasharray="4 2"/>
    <line x1="600" y1="0" x2="600" y2="400" stroke="black" stroke-width="1" stroke-dasharray="4 2"/>
    <line x1="700" y1="0" x2="700" y2="400" stroke="black" stroke-width="1" stroke-dasharray="4 2"/>
    <line x1="800" y1="0" x2="800" y2="400" stroke="black" stroke-width="1" stroke-dasharray="4 2"/>
    <line x1="900" y1="0" x2="900" y2="400" stroke="black" stroke-width="1" stroke-dasharray="4 2"/>
    <line x1="1000" y1="0" x2="1000" y2="400" stroke="black" stroke-width="1" stroke-dasharray="4 2"/>
  </g>
  <g id="steps">
    <line x1="0" y1="400" x2="100" y2="300" stroke="red" stroke-width="3" stroke-dasharray="none"/>
    <line x1="100" y1="300" x2="200" y2="200" stroke="red" stroke-width="3" stroke-dasharray="none"/>
    <line x1="200" y1="200" x2="300" y2="100" stroke="red" stroke-width="3" stroke-dasharray="none"/>
    <line x1="300" y1="100" x2="400" y2="0" stroke="red" stroke-width="3" stroke-dasharray="none"/>
    <line x1="400" y1="0" x2="500" y2="100" stroke="red" stroke-width="3" stroke-dasharray="none"/>
    <line x1="500" y1="100" x2="600" y2="200" stroke="red" stroke-width="3" stroke-dasharray="none"/>
    <line x1="600" y1="200" x2="700" y2="300" stroke="red" stroke-width="3" stroke-dasharray="none"/>
    <line x1="700" y1="300" x2="800" y2="400" stroke="red" stroke-width="3" stroke-dasharray="none"/>
    <line x1="800" y1="400" x2="900" y2="400" stroke="red" stroke-width="3" stroke-dasharray="none"/>
    <line x1="900" y1="400" x2="1000" y2="400" stroke="red" stroke-width="3" stroke-dasharray="none"/>
  </g>
  <g id="points">
    <circle cx="0" cy="400" r="7" fill="blue"/>
    <circle cx="100" cy="300" r="7" fill="blue"/>
    <circle cx="200" cy="200" r="7" fill="blue"/>
    <circle cx="300" cy="100" r="7" fill="blue"/>
    <circle cx="400" cy="0" r="7" fill="blue"/>
    <circle cx="500" cy="100" r="7" fill="blue"/>
    <circle cx="600" cy="200" r="7" fill="blue"/>
    <circle cx="700" cy="300" r="7" fill="blue"/>
    <circle cx="800" cy="400" r="7" fill="blue"/>
    <circle cx="900" cy="400" r="7" fill="blue"/>
    <circle cx="1000" cy="400" r="7" fill="blue"/>
  </g>
</svg>
